:SAMPLES-PER-SECOND 30
:FULLY-SPECIFIED
:DEGREES
381
root  8.20213 40.7459 24.1719 -175.707 17.9217 178.06
RightUpLeg  -16.3919 -5.31604 -6.4252
RightLeg  17.5138 4.30039 1.31954
RightFoot  8.85043 -5.57417 30.9552
RightToes  -1.74624e-010 0 -3.6325e-017
Spine  14.0672 -3.03215 -0.650822
Spine1  13.2068 -3.28504 -0.19009
HEad  -25.0825 22.7004 -13.2478
LeftShoulder1  0.7056 -0.176399 -12.0457
LeftArm  20.9207 8.46768 -58.3476
LeftForeArm  118.507 -76.5066 -128.986
LeftHand  -1.39368 -1.44016 23.6275
RightShoulder  0.825004 1.17873 10.4094
RightArm  1.34148 -13.7911 54.7429
RightForeArm  121.608 66.5049 152.082
RightHand  -0.08411 -0.59368 -1.97442
LeftUpLeg  -11.4815 18.684 0.160003
LeftLeg  27.7604 1.94101 1.42093
LeftFoot  7.69763 2.67618 -16.1042
LeftToes  -5.82109e-011 1.10366e-010 -8.03124e-011
382
root  7.5769 40.6557 24.0923 -176.194 18.1754 178.025
RightUpLeg  -15.147 -5.84424 -3.10794
RightLeg  20.3289 4.93277 1.79364
RightFoot  6.37755 -4.75611 30.0179
RightToes  -1.74624e-010 0 -3.6325e-017
Spine  13.7603 -3.12847 -0.523295
Spine1  13.2263 -3.77132 1.1155
HEad  -24.1145 23.9396 -13.2916
LeftShoulder1  0.673111 -0.0217324 -11.9547
LeftArm  21.6093 9.66415 -58.7386
LeftForeArm  120.024 -76.2508 -130.368
LeftHand  -1.34239 -1.43758 22.794
RightShoulder  0.824766 1.1767 10.4108
RightArm  2.57194 -13.7813 55.3287
RightForeArm  122.891 66.0746 152.748
RightHand  -0.100473 -0.544354 -2.35604
LeftUpLeg  -13.6381 15.41 1.08702
LeftLeg  32.4865 -4.0069 -2.43594
LeftFoot  10.2943 3.99052 -21.0922
LeftToes  -5.82109e-011 1.10366e-010 -8.03124e-011
383
root  6.95347 40.1948 23.9907 -177.236 17.9254 177.392
RightUpLeg  -14.1781 -6.37172 -1.29044
RightLeg  24.2988 1.25831 0.363625
RightFoot  1.19053 -2.26437 19.9196
RightToes  -1.74624e-010 0 -3.6325e-017
Spine  13.3642 -3.31817 -0.721382
Spine1  13.4362 -4.37609 2.65781
HEad  -23.0192 24.6137 -13.1055
LeftShoulder1  0.670468 -0.044595 -11.736
LeftArm  21.9659 10.127 -59.0971
LeftForeArm  119.923 -76.4187 -129.676
LeftHand  -1.30877 -1.68589 21.4942
RightShoulder  0.727657 0.658566 10.261
RightArm  3.44847 -14.0586 56.4525
RightForeArm  125.435 65.6787 153.475
RightHand  -0.115275 -0.309383 -2.61432
LeftUpLeg  -15.8483 9.78952 2.07813
LeftLeg  38.8229 -6.30678 -4.98184
LeftFoot  9.43795 4.01522 -21.9488
LeftToes  -5.82109e-011 1.10366e-010 -8.03124e-011
384
root  6.3078 39.4923 23.8786 -178.972 18.4144 175.922
RightUpLeg  -13.6194 -3.885 -1.82975
RightLeg  28.3469 -4.53341 -2.90093
RightFoot  -6.80896 -0.380625 9.05891
RightToes  -1.74624e-010 0 -3.6325e-017
Spine  13.2869 -3.46321 -1.08741
Spine1  13.6295 -4.35294 2.46921
HEad  -22.1004 25.0117 -12.6988
LeftShoulder1  0.650906 0.0123153 -11.4525
LeftArm  22.0894 9.89604 -59.3115
LeftForeArm  118.52 -76.7393 -128.021
LeftHand  -1.34854 -2.06039 21.0476
RightShoulder  0.592494 -0.12599 10.3554
RightArm  3.98372 -14.2374 57.9046
RightForeArm  128.728 65.3621 154.174
RightHand  -0.130772 0.00732866 -2.83284
LeftUpLeg  -17.2611 4.82385 2.97587
LeftLeg  45.2742 -2.11795 -1.76569
LeftFoot  7.47604 3.02653 -18.3901
LeftToes  -5.82109e-011 1.10366e-010 -8.03124e-011
385
root  5.57074 38.6611 23.7863 179.217 20.7339 175.012
RightUpLeg  -14.0264 1.00156 -3.25952
RightLeg  32.6268 -7.59699 -5.43177
RightFoot  -14.1571 0.091666 6.13483
RightToes  -1.74624e-010 0 -3.6325e-017
Spine  13.2977 -3.47222 -0.00200778
Spine1  14.3915 -3.35618 0.0597357
HEad  -22.1202 25.6791 -12.7875
LeftShoulder1  0.603283 0.342268 -11.9647
LeftArm  21.5162 8.63744 -59.4493
LeftForeArm  113.225 -77.6616 -122.081
LeftHand  -1.49935 -2.40482 22.3248
RightShoulder  0.53849 -0.523209 10.9409
RightArm  3.71346 -13.2785 59.1121
RightForeArm  129.148 65.8317 153.69
RightHand  -0.129344 -0.0663853 -2.83069
LeftUpLeg  -17.6743 2.36265 5.05756
LeftLeg  51.2577 4.03258 5.80246
LeftFoot  6.76449 2.04138 -13.0682
LeftToes  -5.82109e-011 1.10366e-010 -8.03124e-011
386
root  4.77341 37.9127 23.7024 177.978 24.52 175.63
RightUpLeg  -15.1004 5.29823 -3.79125
RightLeg  36.3499 -6.48336 -5.35751
RightFoot  -18.412 0.404644 8.60372
RightToes  -1.74624e-010 0 -3.6325e-017
Spine  13.0874 -3.34396 2.2022
Spine1  16.0605 -2.07726 -2.50433
HEad  -23.3551 27.1275 -14.0275
LeftShoulder1  0.601065 0.629499 -13.9402
LeftArm  19.2323 6.71674 -60.0107
LeftForeArm  97.3898 -79.237 -104.218
LeftHand  -1.72666 -2.72803 24.6144
RightShoulder  0.615485 -0.236412 11.7886
RightArm  2.39937 -10.9099 60.0087
RightForeArm  123.048 68.3864 149.587
RightHand  -0.124702 -0.569911 -3.0018
LeftUpLeg  -16.9507 1.54649 8.8957
LeftLeg  55.2145 6.83922 10.8731
LeftFoot  6.69453 1.34201 -8.68363
LeftToes  -5.82109e-011 1.10366e-010 -8.03124e-011
387
root  4.01141 37.48 23.5868 177.336 27.849 176.9
RightUpLeg  -15.814 7.73488 -3.53015
RightLeg  38.5886 -5.1494 -4.681
RightFoot  -19.7068 0.604256 10.104
RightToes  -1.74624e-010 0 -3.6325e-017
Spine  12.9779 -3.24534 2.89731
Spine1  17.9984 -1.79392 -2.86843
HEad  -25.0105 29.398 -15.7852
LeftShoulder1  0.737389 0.365232 -16.7216
LeftArm  15.2575 5.33615 -61.2041
LeftForeArm  71.4283 -79.3842 -76.6783
LeftHand  -1.96332 -2.88483 27.3429
RightShoulder  0.755894 0.333896 12.7416
RightArm  0.760656 -8.76849 61.1734
RightForeArm  109.294 73.1403 138.148
RightHand  -0.22358 -0.328626 -5.02848
LeftUpLeg  -15.3973 0.0558823 12.8028
LeftLeg  55.5245 6.42755 10.469
LeftFoot  4.81814 0.911848 -6.63037
LeftToes  -5.82109e-011 1.10366e-010 -8.03124e-011
388
root  3.26893 37.4571 23.4201 176.934 29.2558 177.451
RightUpLeg  -15.6265 8.56244 -4.00666
RightLeg  38.5447 -5.2687 -4.75876
RightFoot  -19.2846 0.541806 9.65375
RightToes  -1.74624e-010 0 -3.6325e-017
Spine  13.1786 -3.43466 1.22744
Spine1  19.1365 -2.84046 -1.18895
HEad  -25.9916 31.8645 -16.6859
LeftShoulder1  0.96117 -0.289422 -18.7969
LeftArm  11.6189 5.08694 -62.5727
LeftForeArm  54.2686 -78.1627 -61.0334
LeftHand  -2.19369 -2.81066 30.638
RightShoulder  0.842631 0.562054 13.8924
RightArm  -0.606921 -9.07432 62.8718
RightForeArm  86.1808 77.53 114.815
RightHand  -0.568576 1.46101 -9.63012
LeftUpLeg  -13.8549 -3.05549 14.8708
LeftLeg  52.389 5.40649 7.96113
LeftFoot  1.12115 0.737439 -6.85584
LeftToes  -5.82109e-011 1.10366e-010 -8.03124e-011
389
root  2.48475 37.7597 23.1811 177.058 29.5263 177.114
RightUpLeg  -15.0543 8.25314 -5.93465
RightLeg  35.7607 -4.80866 -3.99385
RightFoot  -17.8349 0.462746 10.3246
RightToes  -1.74624e-010 0 -3.6325e-017
Spine  13.1621 -3.79811 -1.09426
Spine1  19.2291 -4.13222 0.385215
HEad  -26.0706 33.775 -16.4811
LeftShoulder1  1.02506 -0.470304 -19.2703
LeftArm  10.5367 5.60183 -63.5754
LeftForeArm  51.6027 -78.0103 -61.2782
LeftHand  -2.40056 -2.87503 33.154
RightShoulder  0.838459 0.358553 14.9762
RightArm  -2.08381 -12.2299 64.3618
RightForeArm  57.2417 78.6885 84.1264
RightHand  -1.14505 3.61657 -14.9761
LeftUpLeg  -12.8407 -6.0185 15.2031
LeftLeg  46.8532 4.68544 5.76308
LeftFoot  -2.29953 0.667976 -8.26407
LeftToes  -5.82109e-011 1.10366e-010 -8.03124e-011
390
root  1.66887 38.2292 22.8638 178.277 30.46 176.814
RightUpLeg  -14.7474 7.09954 -8.25015
RightLeg  30.773 -2.6923 -1.99458
RightFoot  -15.3089 0.338996 12.8545
RightToes  -1.74624e-010 0 -3.6325e-017
Spine  12.3201 -3.85596 -2.72504
Spine1  18.7635 -4.68426 1.05449
HEad  -25.8235 35.0021 -16.2303
LeftShoulder1  0.808768 0.279807 -18.4646
LeftArm  11.5436 6.41861 -63.9812
LeftForeArm  61.1335 -78.8474 -70.8804
LeftHand  -2.37598 -3.14646 31.7956
RightShoulder  0.806122 0.142457 15.418
RightArm  -3.77734 -16.5386 64.5492
RightForeArm  33.5296 76.9926 59.4129
RightHand  -1.62738 4.8274 -18.673
LeftUpLeg  -12.158 -6.6948 15.1617
LeftLeg  40.0324 3.44655 3.50089
LeftFoot  -4.28583 0.61946 -9.60454
LeftToes  -5.82109e-011 1.10366e-010 -8.03124e-011
